<svg xmlns="http://www.w3.org/2000/svg" xmlns:xlink="http://www.w3.org/1999/xlink" width="500" zoomAndPan="magnify" viewBox="0 0 375 374.999991" height="500" preserveAspectRatio="xMidYMid meet" version="1.0"><defs><g/></defs><g fill="#000000" fill-opacity="1"><g transform="translate(67.405627, 248.363219)"><g><path d="M 74.40625 -32.15625 C 74.40625 -20.425781 71.4375 -11.664062 65.5 -5.875 C 59.570312 -0.09375 51.070312 2.796875 40 2.796875 C 27.019531 2.796875 17.597656 -0.117188 11.734375 -5.953125 C 5.867188 -11.796875 2.960938 -21.234375 3.015625 -34.265625 L 3.015625 -41.890625 L 24.671875 -41.890625 L 24.671875 -39.625 C 24.671875 -29.914062 25.703125 -23.535156 27.765625 -20.484375 C 29.835938 -17.441406 33.335938 -15.921875 38.265625 -15.921875 C 42.890625 -15.921875 46.207031 -17.050781 48.21875 -19.3125 C 50.238281 -21.582031 51.25 -25.609375 51.25 -31.390625 L 51.25 -110.9375 L 74.40625 -110.9375 Z M 74.40625 -32.15625 "/></g></g></g><g fill="#000000" fill-opacity="1"><g transform="translate(177.318098, 248.363219)"><g><path d="M 118.9375 0 L 97.28125 0 L 97.28125 -74.9375 L 97.578125 -92.75 L 96.984375 -92.75 L 76.21875 0 L 53.515625 0 L 33.28125 -92.75 L 32.75 -92.75 L 32.984375 -74.9375 L 32.984375 0 L 11.328125 0 L 11.328125 -110.9375 L 45.203125 -110.9375 L 65.203125 -23.46875 L 65.65625 -23.46875 L 85.359375 -110.9375 L 118.9375 -110.9375 Z M 118.9375 0 "/></g></g></g><g fill="#004aad" fill-opacity="1"><g transform="translate(113.793213, 248.363219)"><g><path d="M 28.671875 -34.1875 C 28.671875 -28.707031 30.695312 -24.34375 34.75 -21.09375 C 38.800781 -17.84375 44.601562 -16.21875 52.15625 -16.21875 C 59.695312 -16.21875 65.441406 -17.4375 69.390625 -19.875 C 73.335938 -22.320312 75.3125 -25.910156 75.3125 -30.640625 C 75.3125 -33.453125 74.289062 -35.890625 72.25 -37.953125 C 70.21875 -40.023438 65.378906 -41.960938 57.734375 -43.765625 L 38.859375 -48.15625 C 26.941406 -50.96875 18.832031 -54.800781 14.53125 -59.65625 C 10.226562 -64.507812 8.078125 -71.210938 8.078125 -79.765625 C 8.078125 -89.785156 11.632812 -97.976562 18.75 -104.34375 C 25.875 -110.707031 36.554688 -113.890625 50.796875 -113.890625 C 64.929688 -113.890625 75.65625 -110.316406 82.96875 -103.171875 C 90.289062 -96.023438 93.976562 -87.644531 94.03125 -78.03125 L 71.765625 -78.03125 C 71.265625 -83.46875 69.148438 -87.609375 65.421875 -90.453125 C 61.703125 -93.296875 56.25 -94.71875 49.0625 -94.71875 C 43.269531 -94.71875 38.597656 -93.519531 35.046875 -91.125 C 31.503906 -88.738281 29.734375 -85.507812 29.734375 -81.4375 C 29.734375 -78.613281 30.515625 -76.269531 32.078125 -74.40625 C 33.640625 -72.550781 36.15625 -71.195312 39.625 -70.34375 L 69.28125 -63.015625 C 80 -60.398438 87.394531 -56.640625 91.46875 -51.734375 C 95.539062 -46.828125 97.578125 -40.703125 97.578125 -33.359375 C 97.578125 -21.285156 93.390625 -12.21875 85.015625 -6.15625 C 76.640625 -0.09375 66.265625 2.9375 53.890625 2.9375 C 37.890625 2.9375 25.976562 -0.46875 18.15625 -7.28125 C 10.332031 -14.101562 6.421875 -23.070312 6.421875 -34.1875 Z M 28.671875 -34.1875 "/></g></g></g></svg>