<svg xmlns="http://www.w3.org/2000/svg" xmlns:xlink="http://www.w3.org/1999/xlink" width="1063" zoomAndPan="magnify" viewBox="0 0 797.25 398.250001" height="531" preserveAspectRatio="xMidYMid meet" version="1.0"><defs><g/></defs><g fill="#ffffff" fill-opacity="1"><g transform="translate(-1.466347, 370.446659)"><g><path d="M 247.109375 -106.765625 C 247.109375 -67.835938 237.25 -38.765625 217.53125 -19.546875 C 197.820312 -0.335938 169.585938 9.265625 132.828125 9.265625 C 89.722656 9.265625 58.4375 -0.421875 38.96875 -19.796875 C 19.507812 -39.179688 9.863281 -70.507812 10.03125 -113.78125 L 10.03125 -139.09375 L 81.953125 -139.09375 L 81.953125 -131.578125 C 81.953125 -99.328125 85.375 -78.144531 92.21875 -68.03125 C 99.070312 -57.925781 110.6875 -52.875 127.0625 -52.875 C 142.4375 -52.875 153.460938 -56.632812 160.140625 -64.15625 C 166.828125 -71.675781 170.171875 -85.039062 170.171875 -104.25 L 170.171875 -368.40625 L 247.109375 -368.40625 Z M 247.109375 -106.765625 "/></g></g></g><g fill="#ffffff" fill-opacity="1"><g transform="translate(363.519057, 370.446659)"><g><path d="M 394.96875 0 L 323.046875 0 L 323.046875 -248.859375 L 324.046875 -308.015625 L 322.046875 -308.015625 L 253.125 0 L 177.6875 0 L 110.515625 -308.015625 L 108.765625 -308.015625 L 109.515625 -248.859375 L 109.515625 0 L 37.59375 0 L 37.59375 -368.40625 L 150.125 -368.40625 L 216.53125 -77.9375 L 218.03125 -77.9375 L 283.453125 -368.40625 L 394.96875 -368.40625 Z M 394.96875 0 "/></g></g></g><g fill="#004aad" fill-opacity="1"><g transform="translate(152.572553, 370.446659)"><g><path d="M 95.234375 -113.53125 C 95.234375 -95.320312 101.957031 -80.828125 115.40625 -70.046875 C 128.851562 -59.273438 148.109375 -53.890625 173.171875 -53.890625 C 198.234375 -53.890625 217.320312 -57.9375 230.4375 -66.03125 C 243.550781 -74.132812 250.109375 -86.039062 250.109375 -101.75 C 250.109375 -111.101562 246.722656 -119.207031 239.953125 -126.0625 C 233.191406 -132.914062 217.113281 -139.347656 191.71875 -145.359375 L 129.0625 -159.890625 C 89.46875 -169.242188 62.523438 -181.984375 48.234375 -198.109375 C 33.953125 -214.234375 26.8125 -236.5 26.8125 -264.90625 C 26.8125 -298.15625 38.628906 -325.347656 62.265625 -346.484375 C 85.910156 -367.617188 121.378906 -378.1875 168.671875 -378.1875 C 215.617188 -378.1875 251.242188 -366.320312 275.546875 -342.59375 C 299.859375 -318.863281 312.097656 -291.046875 312.265625 -259.140625 L 238.34375 -259.140625 C 236.664062 -277.179688 229.644531 -290.921875 217.28125 -300.359375 C 204.914062 -309.804688 186.789062 -314.53125 162.90625 -314.53125 C 143.6875 -314.53125 128.1875 -310.5625 116.40625 -302.625 C 104.632812 -294.6875 98.75 -283.953125 98.75 -270.421875 C 98.75 -261.054688 101.335938 -253.285156 106.515625 -247.109375 C 111.691406 -240.929688 120.046875 -236.421875 131.578125 -233.578125 L 230.0625 -209.265625 C 265.65625 -200.578125 290.21875 -188.085938 303.75 -171.796875 C 317.28125 -155.503906 324.046875 -135.160156 324.046875 -110.765625 C 324.046875 -70.671875 310.132812 -40.554688 282.3125 -20.421875 C 254.5 -0.285156 220.039062 9.78125 178.9375 9.78125 C 125.8125 9.78125 86.253906 -1.535156 60.265625 -24.171875 C 34.285156 -46.816406 21.296875 -76.601562 21.296875 -113.53125 Z M 95.234375 -113.53125 "/></g></g></g></svg>